{"title":"Rakudai Kishi no Cavalry Season 1 Complete (EngDub) 720p Do","magnet":"magnet:?xt=urn:btih:310c9cda40430c1148c53548f06c42f193546503&dn=Rakudai+Kishi+no+Cavalry+Season+1+Complete+%28EngDub%29+720p+Do&tr=udp%3A%2F%2Ftracker.leechers-paradise.org%3A6969&tr=udp%3A%2F%2Fzer0day.ch%3A1337&tr=udp%3A%2F%2Fopen.demonii.com%3A1337&tr=udp%3A%2F%2Ftracker.coppersurfer.tk%3A6969&tr=udp%3A%2F%2Fexodus.desync.com%3A6969","uploader":"digimaza","categoryP":"video","categoryS":"hd___tv_shows","size":"3044527607","seeders":"2","leechers":"2","description":"Chivalry of a Failed Knight Season 1 Complete (EngDub) 720p x264 Download  <a href=\"\nhttps://s21.postimg.org/vdw9z1own/maxresdefault.jpg\" rel=\"nofollow\" target=\"_NEW\">\nhttps://s21.postimg.org/vdw9z1own/maxresdefault.jpg</a>\r\n\r\nMagic Knights are modern magic-users who fight with weapons converted from their souls. Ikki Kurogane goes to a school for these Magic Knights, but he is the &quot;Failed Knight&quot; or &quot;Worst One&quot; who is failing because he has no magical skills. However, one day, he is challenged to a duel by Stella, a foreign princess and the &quot;Number One&quot; student. In this duel, &quot;the loser must be obedient for life.&quot;\r\n\r\n.::File Specs::.. \r\nGeneral \r\n\r\nFormat version : Version 4 / Version 2 \r\nFile size : 246 MiB \r\nDuration : 23 min 42 s \r\nOverall bit rate : 1 453 kb/s \r\n\r\nVideo \r\n\r\nFormat : AVC \r\nFormat/Info : Advanced Video Codec \r\nFormat profile : <a class=\"__cf_email__\" href=\"/cdn-cgi/l/email-protection\" data-cfemail=\"efa7868887afa3dcc1de\">[email&#xA0;protected]</a><script data-cfhash=\"f9e31\" type=\"text/javascript\">/* <![CDATA[ */!function(t,e,r,n,c,a,p){try{t=document.currentScript||function(){for(t=document.getElementsByTagName('script'),e=t.length;e--;)if(t[e].getAttribute('data-cfhash'))return t[e]}();if(t&&(c=t.previousSibling)){p=t.parentNode;if(a=c.getAttribute('data-cfemail')){for(e='',r='0x'+a.substr(0,2)|0,n=2;a.length-n;n+=2)e+='%'+('0'+('0x'+a.substr(n,2)^r).toString(16)).slice(-2);p.replaceChild(document.createTextNode(decodeURIComponent(e)),c)}p.removeChild(t)}}catch(u){}}()/* ]]> */</script> \r\nFormat settings, CABAC : Yes \r\nFormat settings, ReFrames : 1 frame \r\nCodec ID : V_MPEG4/ISO/AVC \r\nDuration : 23 min 42 s \r\nBit rate : 1 259 kb/s \r\nWidth : 1 280 pixels \r\nHeight : 720 pixels \r\nDisplay aspect ratio : 16:9 \r\nFrame rate mode : Constant \r\nFrame rate : 23.976 (24000/1001) FPS \r\nColor space : YUV \r\nChroma subsampling : 4:2:0 \r\nBit depth : 8 bits \r\nScan type : Progressive \r\nBits/(Pixel*Frame) : 0.057 \r\nStream size : 214 MiB (87%) \r\nDefault : Yes \r\nForced : No \r\nColor range : Limited \r\n\r\nAudio \r\n\r\nFormat : AAC \r\nFormat/Info : Advanced Audio Codec \r\nFormat profile : LC \r\nCodec ID : A_AAC \r\nDuration : 23 min 42 s \r\nBit rate : 192 kb/s \r\nChannel(s) : 2 channels \r\nChannel positions : Front: L R \r\nSampling rate : 44.1 kHz \r\nFrame rate : 43.066 FPS (1024 spf) \r\nCompression mode : Lossy \r\nStream size : 32.6 MiB (13%) \r\nLanguage : English \r\n\r\n..::ScreenShots::.. \r\n <a href=\"\nhttps://s9.postimg.org/x7dfc5ia7/vlcsnap-2017-05-25-11h24m13s979.png\" rel=\"nofollow\" target=\"_NEW\">\nhttps://s9.postimg.org/x7dfc5ia7/vlcsnap-2017-05-25-11h24m13s979.png</a>  <a href=\"\nhttps://s9.postimg.org/oqdx18dlb/vlcsnap-2017-05-25-11h24m19s580.png\" rel=\"nofollow\" target=\"_NEW\">\nhttps://s9.postimg.org/oqdx18dlb/vlcsnap-2017-05-25-11h24m19s580.png</a>  <a href=\"\nhttps://s9.postimg.org/47j0w5znz/vlcsnap-2017-05-25-11h24m31s058.png\" rel=\"nofollow\" target=\"_NEW\">\nhttps://s9.postimg.org/47j0w5znz/vlcsnap-2017-05-25-11h24m31s058.png</a> \r\n\r\n================================================================ \r\nSeed Seed Seed Seed Seed Seed Seed Seed Seed Seed Seed Seed Seed \r\nTo direct download this file, Visit. \r\nwww.DigiMaza.com \r\nSeed Seed Seed Seed Seed Seed Seed Seed Seed Seed Seed Seed Seed \r\n================================================================","last_updated":"2017-05-25T10:10:11.230Z","parsed":{"xt":"urn:btih:310c9cda40430c1148c53548f06c42f193546503","dn":"Rakudai Kishi no Cavalry Season 1 Complete (EngDub) 720p Do","tr":["udp://exodus.desync.com:6969","udp://open.demonii.com:1337","udp://tracker.coppersurfer.tk:6969","udp://tracker.leechers-paradise.org:6969","udp://zer0day.ch:1337"],"infoHash":"310c9cda40430c1148c53548f06c42f193546503","infoHashBuffer":{"type":"Buffer","data":[49,12,156,218,64,67,12,17,72,197,53,72,240,108,66,241,147,84,101,3]},"name":"Rakudai Kishi no Cavalry Season 1 Complete (EngDub) 720p Do","announce":["udp://exodus.desync.com:6969","udp://open.demonii.com:1337","udp://tracker.coppersurfer.tk:6969","udp://tracker.leechers-paradise.org:6969","udp://zer0day.ch:1337"],"urlList":[]}}